<svg id="color" enable-background="new 0 0 24 24" height="512" viewBox="0 0 24 24" width="512" xmlns="http://www.w3.org/2000/svg"><path d="m17.25 21.25h1.5v2h-1.5z" fill="#90a4ae"/><path d="m18 21.25h-.75v2h.75z" fill="#7d8f97"/><path d="m6.75 10.25h-1.5v-2h1.5z" fill="#90a4ae"/><path d="m6 8.25h-.75v2h.75z" fill="#7d8f97"/><path d="m19.25 24h-2.5c-.414 0-.75-.336-.75-.75s.336-.75.75-.75h2.5c.414 0 .75.336.75.75s-.336.75-.75.75z" fill="#90a4ae"/><g fill="#2196f3"><path d="m15.5 6h-.5c-.552 0-1-.448-1-1s.448-1 1-1h.5c.552 0 1 .448 1 1s-.448 1-1 1z"/><path d="m17.961 6.723c-.047-.163-.136-.313-.257-.432-.393-.388-.397-1.021-.009-1.414.389-.394 1.021-.396 1.414-.009.365.36.632.811.773 1.302.153.531-.154 1.085-.685 1.237-.522.153-1.082-.149-1.236-.684z"/><path d="m19 11c-.552 0-1-.448-1-1v-.5c0-.552.448-1 1-1s1 .448 1 1v.5c0 .552-.448 1-1 1z"/><path d="m9 20h-.5c-.552 0-1-.448-1-1s.448-1 1-1h.5c.552 0 1 .448 1 1s-.447 1-1 1z"/><path d="m4.89 19.132c-.365-.36-.632-.811-.773-1.302-.153-.531.154-1.085.685-1.237.533-.153 1.085.154 1.237.685.047.163.136.313.257.432.393.388.397 1.021.009 1.414-.389.393-1.022.396-1.415.008z"/><path d="m5 15.5c-.552 0-1-.448-1-1v-.5c0-.552.448-1 1-1s1 .448 1 1v.5c0 .552-.448 1-1 1z"/></g><path d="m22.25 21.5h-8.5c-.965 0-1.75-.785-1.75-1.75v-5c0-.965.785-1.75 1.75-1.75h8.5c.965 0 1.75.785 1.75 1.75v5c0 .965-.785 1.75-1.75 1.75z" fill="#607d8b"/><path d="m22 20h-8c-.276 0-.5-.224-.5-.5v-4.5c0-.276.224-.5.5-.5h8c.276 0 .5.224.5.5v4.5c0 .276-.224.5-.5.5z" fill="#fff"/><path d="m10.25 8.5h-8.5c-.965 0-1.75-.785-1.75-1.75v-5c0-.965.785-1.75 1.75-1.75h8.5c.965 0 1.75.785 1.75 1.75v5c0 .965-.785 1.75-1.75 1.75z" fill="#607d8b"/><path d="m10 7h-8c-.276 0-.5-.224-.5-.5v-4.5c0-.276.224-.5.5-.5h8c.276 0 .5.224.5.5v4.5c0 .276-.224.5-.5.5z" fill="#fff"/><path d="m6 0h-4.25c-.965 0-1.75.785-1.75 1.75v5c0 .965.785 1.75 1.75 1.75h4.25v-1.5h-4c-.276 0-.5-.224-.5-.5v-4.5c0-.276.224-.5.5-.5h4z" fill="#546d79"/><path d="m6 1.5h-4c-.276 0-.5.224-.5.5v4.5c0 .276.224.5.5.5h4z" fill="#dedede"/><path d="m7.25 11h-2.5c-.414 0-.75-.336-.75-.75s.336-.75.75-.75h2.5c.414 0 .75.336.75.75s-.336.75-.75.75z" fill="#90a4ae"/><path d="m8 10.25h-4c0 .414.336.75.75.75h2.5c.414 0 .75-.336.75-.75z" fill="#7d8f97"/><path d="m18 13h-4.25c-.965 0-1.75.785-1.75 1.75v5c0 .965.785 1.75 1.75 1.75h4.25v-1.5h-4c-.276 0-.5-.224-.5-.5v-4.5c0-.276.224-.5.5-.5h4z" fill="#546d79"/><path d="m18 14.5h-4c-.276 0-.5.224-.5.5v4.5c0 .276.224.5.5.5h4z" fill="#dedede"/><path d="m20 23.25h-4c0 .414.336.75.75.75h2.5c.414 0 .75-.336.75-.75z" fill="#7d8f97"/></svg>