<svg id="bold" enable-background="new 0 0 32 32" height="512" viewBox="0 0 32 32" width="512" xmlns="http://www.w3.org/2000/svg"><path d="m26 32h-20c-3.314 0-6-2.686-6-6v-20c0-3.314 2.686-6 6-6h20c3.314 0 6 2.686 6 6v20c0 3.314-2.686 6-6 6z" fill="#e3f8fa"/><g fill="#8ce1eb"><path d="m10.5 11.667c-.368 0-.667-.299-.667-.667v-2.333c0-.369.299-.667.667-.667s.667.299.667.667v2.333c0 .368-.299.667-.667.667z"/><path d="m13.667 11.667c-.369 0-.667-.299-.667-.667v-2.333c0-.369.298-.667.667-.667.368 0 .667.299.667.667v2.333c-.001.368-.299.667-.667.667z"/><path d="m16.833 11.667c-.368 0-.667-.299-.667-.667v-2.333c.001-.369.299-.667.667-.667s.667.298.667.667v2.333c0 .368-.298.667-.667.667z"/></g><path d="m17.5 9.5h-7.667c-1.013 0-1.833.82-1.833 1.833v8.833c0 1.014.82 1.834 1.833 1.834h4.393c-.36-.76-.56-1.607-.56-2.5 0-1.027.267-1.993.74-2.833h-3.74c-.366 0-.666-.3-.666-.667s.3-.667.667-.667h4.667c.027 0 .06 0 .087.007 1.013-1 2.393-1.627 3.913-1.667v-2.34c-.001-1.013-.821-1.833-1.834-1.833zm-4.167 4.5h-2.667c-.366 0-.666-.3-.666-.667s.3-.667.667-.667h2.667c.367 0 .667.3.667.667-.001.367-.301.667-.668.667z" fill="#26c6da"/><path d="m19.5 15c-2.481 0-4.5 2.019-4.5 4.5s2.019 4.5 4.5 4.5 4.5-2.019 4.5-4.5-2.019-4.5-4.5-4.5zm1.833 5.167h-1.167v1.167c0 .368-.299.667-.667.667s-.667-.299-.667-.667v-1.167h-1.167c-.366 0-.665-.299-.665-.667s.299-.667.667-.667h1.167v-1.167c0-.368.299-.667.667-.667s.667.299.667.667v1.167h1.167c.368 0 .667.299.667.667s-.3.667-.669.667z" fill="#8ce1eb"/></svg>