<svg id="color" enable-background="new 0 0 24 24" height="512" viewBox="0 0 24 24" width="512" xmlns="http://www.w3.org/2000/svg"><path d="m16 22h-2v-2h-4v2h-2c-.552 0-1 .448-1 1s.448 1 1 1h8c.553 0 1-.448 1-1s-.447-1-1-1z" fill="#90a4ae"/><path d="m24 5.75v12.5c0 .96-.79 1.75-1.75 1.75h-20.5c-.96 0-1.75-.79-1.75-1.75v-12.5c0-.96.79-1.75 1.75-1.75h3.25v2h-3v12h20v-12h-3v-2h3.25c.96 0 1.75.79 1.75 1.75z" fill="#607d8b"/><path d="m22 6v12h-20v-12h3v4.75c0 2.07 1.68 3.75 3.75 3.75h6.5c2.07 0 3.75-1.68 3.75-3.75v-4.75z" fill="#fafafa"/><path d="m15.25 12.5h-6.5c-.965 0-1.75-.785-1.75-1.75v-7.5c0-.965.785-1.75 1.75-1.75h6.5c.965 0 1.75.785 1.75 1.75v7.5c0 .965-.785 1.75-1.75 1.75z" fill="#03a9f4"/><path d="m13.25 9.5h-2.5c-.414 0-.75-.336-.75-.75s.336-.75.75-.75h2.5c.414 0 .75.336.75.75s-.336.75-.75.75z" fill="#fff"/><path d="m13.25 6.5h-2.5c-.414 0-.75-.336-.75-.75s.336-.75.75-.75h2.5c.414 0 .75.336.75.75s-.336.75-.75.75z" fill="#fff"/><g fill="#0288d1"><path d="m13.5 3c-.414 0-.75-.336-.75-.75v-1.5c0-.414.336-.75.75-.75s.75.336.75.75v1.5c0 .414-.336.75-.75.75z"/><path d="m10.5 3c-.414 0-.75-.336-.75-.75v-1.5c0-.414.336-.75.75-.75s.75.336.75.75v1.5c0 .414-.336.75-.75.75z"/></g></svg>